<?xml version="1.0" encoding="utf-8"?>
<!-- Generator: Adobe Illustrator 19.0.0, SVG Export Plug-In . SVG Version: 6.00 Build 0)  -->
<svg version="1.1" id="Capa_1" xmlns="http://www.w3.org/2000/svg" x="0px" y="0px"
		 viewBox="0 0 367.4 243" enable-background="new 0 0 367.4 243" xml:space="preserve">
<path id="XMLID_6_" fill="#444444" d="M263.4,17.5c-0.4-4.5-2.3-8.4-5.8-11.5c-3.5-3.1-7.4-4.7-11.9-4.7l-124,0
	c-4.5,0-8.4,1.6-11.9,4.7c-3.5,3.2-5.4,7-5.8,11.5L86.9,218.1c-0.6,6.7,0.9,12.6,4.5,17.5c3.6,4.9,8.3,7.4,14,7.4l156.7,0
	c5.7,0,10.3-2.5,14-7.4c3.6-4.9,5.1-10.7,4.5-17.5L263.4,17.5z M264.4,218.1c0.1,1.3-0.2,2.5-1,3.4c-0.7,1-1.6,1.5-2.8,1.5h-28.4
	l-8.9-208.8l23.2,0c0.9,0,1.7,0.3,2.4,1c0.7,0.6,1.1,1.4,1.1,2.3C250.1,17.5,264.4,218.1,264.4,218.1z M117.3,17.5
	c0.1-0.9,0.4-1.7,1.1-2.3c0.7-0.7,1.5-1,2.4-1l62.9,0l0,208.8h-77c-1.1,0-2-0.5-2.8-1.5c-0.7-1-1.1-2.1-1-3.4L117.3,17.5z
	 M120,203.7h15.9l1.6-36.8h-15.4L120,203.7z M123.1,149.4h15.2l2.1-49.2l-14.5,0L123.1,149.4z"/>
	<path id="XMLID_69_" fill="#444444" d="M307.4,0H60c-8.2,0-14.8,6.7-14.8,14.8v0c0,8.2,6.7,14.8,14.8,14.8h47.4
	c0.2-0.7,0.4-1.3,0.7-2c0-0.4-0.1-0.9-0.1-1.3c-0.5-10.5,9.3-19.5,19.5-19.5c2.4,0,4.7,0.5,6.7,1.2c8.7-0.9,17.5,0.5,26.1,1.1
	c13,1,25.9,1.6,38.9,1.5c10.7-0.1,21.4-1.5,32-1.8c2.2-0.9,4.5-1.3,6.9-1.3c9.6,0,17.1,7,19,15.9c0.4,1.6,0.7,3.2,0.8,5
	c0,0.4,0,0.9,0,1.3h49.4c8.2,0,14.8-6.7,14.8-14.8v0C322.2,6.7,315.5,0,307.4,0z"/>
	<path id="XMLID_7_" display="none" fill="#444444" d="M72.9,92.3c-0.6,1.3-1.4,1.9-2.3,1.9H54.1L34.9,238.7
	c-0.2,1.2-0.6,2.3-1.2,3.1c-0.6,0.8-1.3,1.2-2.1,1.2H15.4c-0.8,0-1.4-0.4-1.8-1.2c-0.4-0.8-0.5-1.8-0.3-3.1L35.2,94.3H18.8
	c-1,0-1.6-0.6-1.8-1.9c-0.2-1.3,0.1-2.4,1-3.5L48.8,52c0.6-0.6,1.1-0.9,1.7-0.9c0.7,0,1.2,0.3,1.6,0.9l20.8,36.9
	C73.4,89.9,73.4,91.1,72.9,92.3z"/>
	<path id="XMLID_9_" display="none" fill="#444444" d="M350.5,92.3c-0.2,1.3-0.8,1.9-1.8,1.9h-16.5l21.9,144.5
	c0.2,1.2,0.1,2.3-0.3,3.1c-0.4,0.8-1,1.2-1.8,1.2h-16.2c-0.8,0-1.5-0.4-2.1-1.2c-0.6-0.8-1-1.8-1.2-3.1L313.4,94.3h-16.5
	c-1,0-1.8-0.6-2.3-1.9c-0.5-1.3-0.5-2.4,0-3.5L315,52c0.4-0.6,0.9-0.9,1.5-0.9c0.7,0,1.3,0.3,1.8,0.9l31.2,36.9
	C350.3,89.9,350.6,91.1,350.5,92.3z"/>
	<path id="XMLID_8_" fill="#444444" d="M0.6,188.4c0.7-1.5,1.7-2.3,2.7-2.3h18L41.3,54c0.1-0.9,0.5-1.6,1-2.1
	c0.5-0.6,1.1-0.8,1.7-0.8h13.5c0.7,0,1.2,0.3,1.5,0.8c0.3,0.6,0.5,1.3,0.4,2.1L41.9,186.1h18c1.1,0,1.8,0.8,2.1,2.3
	c0.3,1.5,0,3-0.9,4.3l-35.2,49c-0.7,0.9-1.4,1.3-2.1,1.3c-0.8,0-1.4-0.4-1.8-1.3l-21.7-49C-0.2,191.3-0.1,189.9,0.6,188.4z"/>
	<path id="XMLID_10_" fill="#444444" d="M305.5,188.4c0.3-1.5,1-2.3,2.1-2.3h18L308.1,54c-0.1-0.9,0-1.6,0.4-2.1
	c0.3-0.6,0.9-0.8,1.5-0.8h13.5c0.7,0,1.2,0.3,1.7,0.8c0.5,0.6,0.8,1.3,1,2.1l20,132.1h18c1.1,0,2,0.8,2.7,2.3c0.7,1.5,0.8,3,0.3,4.3
	l-21.2,49c-0.4,0.9-1,1.3-1.8,1.3c-0.8,0-1.5-0.4-2.2-1.3l-35.6-49C305.5,191.3,305.2,189.9,305.5,188.4z"/>
</svg>
