<?xml version="1.0" encoding="utf-8"?>
<!-- Generator: Adobe Illustrator 18.1.1, SVG Export Plug-In . SVG Version: 6.00 Build 0)  -->
<svg version="1.1" id="Capa_1" xmlns="http://www.w3.org/2000/svg" x="0px" y="0px"
		 viewBox="-285 408.9 24 24" enable-background="new -285 408.9 24 24" xml:space="preserve">
<path d="M-283.1,420.9c0-1.7,1.4-3.1,3.1-3.1h4v-1.9h-4c-2.8,0-5,2.2-5,5c0,2.8,2.2,5,5,5h4V424h-4
	C-281.7,424-283.1,422.6-283.1,420.9z"/>
	<path d="M-266,415.9h-4v1.9h4c1.7,0,3.1,1.4,3.1,3.1c0,1.7-1.4,3.1-3.1,3.1h-4v1.9h4c2.8,0,5-2.2,5-5
	C-261,418.1-263.2,415.9-266,415.9z"/>
	<path d="M-272.5,427.3v4.8c0,0.2-0.1,0.2-0.2,0.3c-0.1,0.1-0.2,0.2-0.3,0.2c-0.2,0-0.2-0.1-0.3-0.2s-0.2-0.2-0.2-0.3v-4.8
	c0-0.2,0.1-0.2,0.2-0.3s0.2-0.2,0.3-0.2c0.2,0,0.2,0.1,0.3,0.2S-272.6,427.3-272.5,427.3z"/>
	<path d="M-270.7,426.1l2.9,2.9c0.1,0.1,0.2,0.2,0.2,0.3c0,0.2-0.1,0.2-0.2,0.3s-0.2,0.2-0.3,0.2c-0.2,0-0.2-0.1-0.3-0.2l-2.9-2.9
	c-0.1-0.1-0.2-0.2-0.2-0.3c0-0.2,0.1-0.2,0.2-0.3s0.2-0.2,0.3-0.2C-270.8,425.9-270.8,426-270.7,426.1z"/>
	<path d="M-274.8,426.2c0.1,0.1,0.2,0.2,0.2,0.3c0,0.2-0.1,0.2-0.2,0.3l-2.9,2.9c-0.1,0.1-0.2,0.2-0.3,0.2s-0.2-0.1-0.3-0.2
	c-0.1-0.1-0.2-0.2-0.2-0.3c0-0.2,0.1-0.2,0.2-0.3l2.9-2.9c0.1-0.1,0.2-0.2,0.3-0.2C-274.9,426-274.9,426-274.8,426.2z"/>
	<path d="M-267.7,412c0.1,0.1,0.2,0.2,0.2,0.3c0,0.2-0.1,0.2-0.2,0.3l-2.9,2.9c-0.1,0.1-0.2,0.2-0.3,0.2c-0.2,0-0.2-0.1-0.3-0.2
	c-0.1-0.1-0.2-0.2-0.2-0.3c0-0.2,0.1-0.2,0.2-0.3l2.9-2.9c0.1-0.1,0.2-0.2,0.3-0.2C-267.8,411.9-267.8,411.9-267.7,412z"/>
	<path d="M-277.7,412l2.9,2.9c0.1,0.1,0.2,0.2,0.2,0.3s-0.1,0.2-0.2,0.3s-0.2,0.2-0.3,0.2s-0.2-0.1-0.3-0.2l-2.9-2.9
	c-0.1-0.1-0.2-0.2-0.2-0.3c0-0.2,0.1-0.2,0.2-0.3s0.2-0.2,0.3-0.2C-277.8,411.9-277.7,411.9-277.7,412z"/>
	<path d="M-272.6,409.7v4.8c0,0.2-0.1,0.2-0.2,0.3s-0.2,0.2-0.3,0.2s-0.2-0.1-0.3-0.2s-0.2-0.2-0.2-0.3v-4.8c0-0.2,0.1-0.2,0.2-0.3
	s0.2-0.2,0.3-0.2c0.2,0,0.2,0.1,0.3,0.2C-272.6,409.4-272.6,409.6-272.6,409.7z"/>
	<rect x="-280" y="419.9" width="4" height="2"/>
	<rect x="-270" y="419.9" width="4" height="2"/>
</svg>
